PathFileType	4	(X/Y/Z)	/Users/itak/Documents/Research/Walk-IL/dataset/trc/00147_00007.trc
DataRate	CameraRate	NumFrames	NumMarkers	Units	OrigDataRate	OrigDataStartFrame	OrigNumFrames
100.000000	100.000000	4	53	mm	100.000000	261	523
Frame#	Time	RPSI			LPSI			L3			STRN			T10			C7			CLAV			RBAK			LBAK			LSHO			LUPA			LAEL			LAOL			LWTS			LWPS			LFRA			LIFD			LHPS			LHTS			RSHO			RUPA			RAEL			RAOL			RWTS			RWPS			RFRA			RIFD			RHTS			RHPS			RBHD			LFHD			RFHD			LBHD			LHIP			RHIP			RASI			LASI			LKNE			LTHI			LANK			LTIP			LTOE			LMT1			LMT5			LHEE			RKNE			RTHI			RANK			RTIP			RTOE			RMT1			RMT5			RHEE			
		X1	Y1	Z1	X2	Y2	Z2	X3	Y3	Z3	X4	Y4	Z4	X5	Y5	Z5	X6	Y6	Z6	X7	Y7	Z7	X8	Y8	Z8	X9	Y9	Z9	X10	Y10	Z10	X11	Y11	Z11	X12	Y12	Z12	X13	Y13	Z13	X14	Y14	Z14	X15	Y15	Z15	X16	Y16	Z16	X17	Y17	Z17	X18	Y18	Z18	X19	Y19	Z19	X20	Y20	Z20	X21	Y21	Z21	X22	Y22	Z22	X23	Y23	Z23	X24	Y24	Z24	X25	Y25	Z25	X26	Y26	Z26	X27	Y27	Z27	X28	Y28	Z28	X29	Y29	Z29	X30	Y30	Z30	X31	Y31	Z31	X32	Y32	Z32	X33	Y33	Z33	X34	Y34	Z34	X35	Y35	Z35	X36	Y36	Z36	X37	Y37	Z37	X38	Y38	Z38	X39	Y39	Z39	X40	Y40	Z40	X41	Y41	Z41	X42	Y42	Z42	X43	Y43	Z43	X44	Y44	Z44	X45	Y45	Z45	X46	Y46	Z46	X47	Y47	Z47	X48	Y48	Z48	X49	Y49	Z49	X50	Y50	Z50	X51	Y51	Z51	X52	Y52	Z52	X53	Y53	Z53	

262	2.61	174.2941131591797	1126.012329101562	1120.081176757812	101.7795715332031	1118.174072265625	1007.010192871094	130.4685211181641	1159.585083007812	1065.443969726562	323.00244140625	1359.814697265625	944.296875	111.2209243774414	1314.04638671875	1080.916015625	139.1146545410156	1605.816162109375	1044.496215820312	291.610595703125	1495.163696289062	955.162841796875	135.7030944824219	1425.732543945312	1154.165405273438	76.93597412109375	1585.553588867188	962.4545288085938	112.5227890014648	1568.1767578125	857.8674926757812	53.99262619018555	1437.536254882812	810.6422729492188	46.14109802246094	1217.52880859375	788.8983764648438	21.39405822753906	1208.02880859375	874.487060546875	143.5699005126953	955.3832397460938	779.6538696289062	59.42947769165039	933.4923706054688	799.6578369140625	53.15529632568359	1100.933837890625	779.9317016601562	158.6817626953125	762.4119262695312	790.9281616210938	81.42731475830078	857.474609375	785.1991577148438	146.5166015625	866.8881225585938	764.106201171875	283.2431335449219	1587.788940429688	1165.358764648438	307.3372192382812	1515.861694335938	1227.408447265625	355.0805969238281	1226.515869140625	1260.108764648438	290.2342834472656	1213.721313476562	1189.29638671875	491.1841735839844	996.9376831054688	1165.43798828125	455.1808471679688	977.5958251953125	1236.781127929688	393.3326416015625	1157.916625976562	1258.85107421875	527.7822875976562	805.5376586914062	1143.669067382812	533.0233154296875	894.0120849609375	1155.414916992188	500.0531921386719	883.1986694335938	1219.846801757812	237.1280670166016	1771.715087890625	1089.496948242188	219.9101715087891	1846.992065429688	882.4490356445312	321.8979187011719	1862.39990234375	960.8921508789062	127.3955764770508	1757.084228515625	1013.344421386719	135.9506225585938	1029.689453125	863.5823364257812	346.4533386230469	1039.825927734375	1161.492919921875	388.544677734375	1109.821899414062	1073.828979492188	245.5688629150391	1100.138549804688	850.200927734375	359.721923828125	560.578857421875	799.1411743164062	271.1749877929688	693.4672241210938	808.7062377929688	94.3251953125	131.594970703125	961.4459228515625	188.8061828613281	356.9253234863281	876.8831787109375	297.6004333496094	52.00978088378906	892.8436889648438	256.2266845703125	77.2181396484375	960.6965942382812	174.5451354980469	81.4884033203125	881.41943359375	75.650634765625	159.0949401855469	1048.062866210938	356.89501953125	545.4419555664062	1111.531005859375	374.6741638183594	825.7760620117188	1139.636840820312	258.9319458007812	31.32351493835449	1137.803344726562	341.3687744140625	410.08935546875	1131.613891601562	427.2300109863281	56.61455535888672	973.2180786132812	354.5934448242188	50.50605010986328	965.8111572265625	383.3994750976562	40.61511993408203	1084.246704101562	183.1604919433594	31.7114315032959	1124.179565429688	
263	2.62	180.4759979248047	1126.189331054688	1116.864013671875	107.6405334472656	1118.453369140625	1004.012756347656	136.7409515380859	1159.765258789062	1062.50048828125	329.0173034667969	1359.746337890625	940.7511596679688	118.2870101928711	1314.15380859375	1078.485595703125	145.8973236083984	1605.938842773438	1041.839599609375	297.7279357910156	1495.137939453125	951.4959716796875	143.2590637207031	1425.999755859375	1151.630126953125	83.1722412109375	1585.622680664062	960.2860107421875	117.8459091186523	1568.052490234375	855.4329223632812	58.11549758911133	1437.543579101562	809.1915283203125	48.01932907104492	1217.578369140625	789.19677734375	23.78402900695801	1209.032958984375	875.0797119140625	142.4253845214844	954.2279052734375	781.625244140625	58.16950988769531	933.5128784179688	802.2062377929688	53.71650314331055	1100.831176757812	781.1412353515625	155.3025970458984	761.200439453125	794.27880859375	79.17654418945312	857.1502685546875	788.2228393554688	144.2414703369141	865.5780029296875	766.771728515625	290.8390197753906	1588.1337890625	1161.639404296875	315.5506286621094	1516.299560546875	1223.5703125	365.5309143066406	1227.030639648438	1255.624267578125	299.7901000976562	1213.865844726562	1185.682495117188	503.791015625	1000.33544921875	1157.208740234375	468.9078063964844	979.6207885742188	1228.73828125	404.6292419433594	1158.802856445312	1253.443969726562	543.3399047851562	809.8460693359375	1132.838623046875	547.20947265625	898.2703857421875	1145.55615234375	515.1102294921875	886.14453125	1210.222290039062	244.3143005371094	1771.644897460938	1085.887329101562	224.8414154052734	1847.078247070312	879.1187133789062	327.6283569335938	1862.650268554688	956.487060546875	133.8461303710938	1756.8544921875	1010.825134277344	141.7587738037109	1030.248046875	860.3174438476562	352.1481018066406	1039.575439453125	1158.199829101562	394.6961975097656	1109.506958007812	1070.45263671875	251.3765869140625	1100.399047851562	847.0206298828125	368.2683715820312	562.8780517578125	794.555419921875	278.4439697265625	694.8370361328125	804.3632202148438	116.8470764160156	122.8228225708008	949.7973022460938	203.2149810791016	352.8377380371094	869.07958984375	322.4193725585938	51.87831497192383	878.59423828125	280.5899963378906	74.30876922607422	947.068359375	198.2634582519531	77.39197540283203	868.2628784179688	97.55427551269531	147.7885131835938	1036.875366210938	359.2061462402344	544.94677734375	1110.289916992188	379.2115783691406	825.4157104492188	1136.736206054688	258.9064025878906	31.46886444091797	1137.662963867188	342.9136657714844	409.7747802734375	1130.712890625	427.3411865234375	56.54484939575195	973.1602172851562	354.7892150878906	50.44517135620117	965.7780151367188	383.4193725585938	40.60477066040039	1084.284545898438	183.0752410888672	31.78090858459473	1124.06005859375	
264	2.63	186.6598205566406	1126.334716796875	1113.578247070312	113.5287933349609	1118.65966796875	1000.936157226562	142.9971923828125	1159.882446289062	1059.478149414062	335.0107116699219	1359.605834960938	937.1224975585938	125.29345703125	1314.176513671875	1075.956665039062	152.6473999023438	1605.983276367188	1039.097900390625	303.8225708007812	1495.038696289062	947.7706298828125	150.7651214599609	1426.177001953125	1148.991333007812	89.40778350830078	1585.6103515625	958.0055541992188	123.1748809814453	1567.876708984375	852.9134521484375	62.29780960083008	1437.4833984375	807.7051391601562	50.06448745727539	1217.592651367188	789.4702758789062	26.42232513427734	1209.989501953125	875.6467895507812	141.3887634277344	953.0516967773438	783.588134765625	57.01642608642578	933.561279296875	804.8123168945312	54.42993545532227	1100.711059570312	782.3387451171875	151.941650390625	760.0089721679688	797.6539916992188	77.0030517578125	856.8466186523438	791.31689453125	142.0149078369141	864.260498046875	769.45654296875	298.3870544433594	1588.390380859375	1157.848999023438	323.6954345703125	1516.652465820312	1219.660766601562	375.8038635253906	1227.473510742188	1251.084106445312	309.1537780761719	1213.98046875	1182.04248046875	516.1268310546875	1003.704711914062	1148.916748046875	482.3741149902344	981.639404296875	1220.602294921875	415.7422180175781	1159.621948242188	1247.961059570312	558.5297241210938	814.1945190429688	1121.913330078125	561.0614013671875	902.5322265625	1135.622314453125	529.8519897460938	889.1087646484375	1200.497436523438	251.485107421875	1771.498657226562	1082.221557617188	229.7275695800781	1847.101196289062	875.7526245117188	333.308837890625	1862.830444335938	952.0435791015625	140.2406616210938	1756.551879882812	1008.259460449219	147.5386352539062	1030.665161132812	856.9981689453125	357.9110107421875	1039.298217773438	1154.78662109375	400.8237915039062	1109.142944335938	1066.966918945312	257.15576171875	1100.568115234375	843.7307739257812	376.20556640625	564.8863525390625	789.9869995117188	285.2720947265625	695.9666137695312	800.0286865234375	139.50634765625	114.1695709228516	937.8365478515625	217.4033050537109	348.6622314453125	861.1965942382812	347.0739440917969	51.97953796386719	864.17724609375	304.877197265625	71.58965301513672	933.235595703125	221.9723815917969	73.45964050292969	854.8988037109375	119.7883453369141	136.6233978271484	1025.406127929688	361.49072265625	544.4393310546875	1109.043579101562	383.7331848144531	825.0519409179688	1133.764038085938	258.87451171875	31.58699798583984	1137.4970703125	344.4537963867188	409.4584350585938	1129.797241210938	427.4599914550781	56.45886993408203	973.0694580078125	354.9785766601562	50.35146331787109	965.7142944335938	383.4387512207031	40.58943176269531	1084.311157226562	183.0075531005859	31.89135551452637	1123.94921875	
265	2.64	192.8465270996094	1126.44140625	1110.222900390625	119.4535369873047	1118.7900390625	997.7779541015625	149.2436218261719	1159.929077148438	1056.367065429688	340.987548828125	1359.392822265625	933.4053955078125	132.2686004638672	1314.110961914062	1073.324829101562	159.3602905273438	1605.946044921875	1036.268310546875	309.893310546875	1494.865478515625	943.9793701171875	158.2188720703125	1426.259155273438	1146.248413085938	95.63896179199219	1585.513427734375	955.614013671875	128.5068664550781	1567.650634765625	850.3042602539062	66.53981018066406	1437.355834960938	806.1925048828125	52.28314971923828	1217.574951171875	789.719482421875	29.31868362426758	1210.891479492188	876.1737670898438	140.4700927734375	951.8544311523438	785.52587890625	55.99000930786133	933.6347045898438	807.4588012695312	55.30243301391602	1100.57373046875	783.5083618164062	148.6237335205078	758.8427124023438	801.0682373046875	74.93088531494141	856.5580444335938	794.4790649414062	139.8631439208984	862.9357299804688	772.1541137695312	305.8856201171875	1588.55126953125	1153.984130859375	331.7745361328125	1516.912109375	1215.674682617188	385.9114379882812	1227.838745117188	1246.478149414062	318.3501586914062	1214.077880859375	1178.3388671875	528.1810302734375	1007.015686035156	1140.576171875	495.5690612792969	983.63037109375	1212.388671875	426.6728515625	1160.365844726562	1242.39990234375	573.3223876953125	818.5467529296875	1110.927856445312	574.5575561523438	906.7606811523438	1125.639038085938	544.2606811523438	892.065673828125	1190.69775390625	258.6376037597656	1771.281005859375	1078.501342773438	234.5811920166016	1847.054565429688	872.345703125	338.9450073242188	1862.929443359375	947.564208984375	146.5746154785156	1756.182250976562	1005.64892578125	153.2976379394531	1030.934326171875	853.6286010742188	363.7598266601562	1038.990966796875	1151.251831054688	406.9433288574219	1108.725463867188	1063.3779296875	262.9168701171875	1100.642578125	840.3394165039062	383.5405578613281	566.58349609375	785.4195556640625	291.6636962890625	696.8401489257812	795.693359375	162.2708740234375	105.7298278808594	925.6071166992188	231.3818359375	344.4110717773438	853.2057495117188	371.52685546875	52.34951019287109	849.696533203125	329.0456237792969	69.11485290527344	919.2944946289062	245.6491241455078	69.74014282226562	841.3956909179688	142.29248046875	125.7234115600586	1013.669311523438	363.7608032226562	543.9161376953125	1107.78466796875	388.2376708984375	824.6843872070312	1130.727661132812	258.8383483886719	31.68644523620605	1137.318725585938	346.0057373046875	409.136962890625	1128.85009765625	427.5806884765625	56.33296585083008	972.943115234375	355.1502685546875	50.19485092163086	965.6227416992188	383.4578857421875	40.56982803344727	1084.328491210938	182.9538116455078	32.02935791015625	1123.839721679688	
